<?xml version="1.0" standalone="no"?>
<!DOCTYPE svg PUBLIC "-//W3C//DTD SVG 20010904//EN"
 "http://www.w3.org/TR/2001/REC-SVG-20010904/DTD/svg10.dtd">
<svg version="1.0" xmlns="http://www.w3.org/2000/svg"
 width="1024.000000pt" height="1024.000000pt" viewBox="0 0 1024.000000 1024.000000"
 preserveAspectRatio="xMidYMid meet">
<metadata>
Created by potrace 1.16, written by Peter Selinger 2001-2019
</metadata>
<g transform="translate(0.000000,1024.000000) scale(0.100000,-0.100000)"
fill="#000000" stroke="none">
<path d="M0 5120 l0 -5120 5120 0 5120 0 0 5120 0 5120 -5120 0 -5120 0 0
-5120z m5159 3712 c28 -39 35 -76 22 -113 l-11 -31 25 16 c48 32 95 10 95 -43
0 -31 -40 -81 -65 -81 -8 0 -24 -9 -35 -20 -53 -53 3 -185 159 -378 128 -157
146 -194 146 -292 0 -98 -33 -171 -134 -300 -41 -52 -81 -106 -88 -120 -34
-65 0 -189 86 -313 62 -89 102 -127 172 -162 37 -19 49 -30 45 -43 -2 -9 -12
-53 -21 -97 -9 -44 -35 -121 -56 -172 -21 -51 -39 -103 -39 -117 0 -27 60 -96
84 -96 17 0 42 29 49 58 3 12 -3 59 -14 103 -37 155 -23 214 76 337 48 60 64
64 65 19 0 -10 18 -66 40 -124 60 -160 53 -232 -33 -345 -20 -26 -33 -49 -29
-51 4 -3 30 -10 59 -17 50 -13 53 -13 88 15 47 35 85 114 85 176 0 65 -19 114
-95 240 -84 139 -99 182 -92 266 l5 65 -47 -45 c-57 -56 -110 -73 -182 -58
-50 11 -104 34 -112 48 -3 5 11 9 31 11 64 4 103 23 163 78 31 29 75 64 97 79
22 15 45 39 52 55 22 52 -20 144 -86 190 -19 12 -32 26 -29 30 3 5 42 27 88
50 159 82 229 141 229 193 1 12 -3 42 -7 67 l-7 45 48 25 c27 13 51 26 54 27
7 4 30 -79 30 -105 0 -10 -16 -33 -35 -52 -30 -29 -35 -40 -35 -80 0 -27 15
-89 35 -149 42 -122 46 -195 14 -256 -11 -22 -56 -74 -99 -116 -88 -86 -97
-107 -87 -213 7 -74 68 -291 101 -355 22 -43 25 -46 60 -43 44 4 109 31 155
66 19 14 37 26 40 26 3 0 4 -27 3 -61 -5 -73 17 -139 55 -169 36 -28 69 -26
77 5 5 18 13 25 30 25 40 0 36 11 -19 62 -63 57 -80 98 -72 174 l6 54 -56 -40
c-44 -31 -65 -40 -97 -40 -64 1 -153 46 -177 92 -8 15 -5 15 28 6 66 -18 103
-8 283 76 29 13 47 68 36 110 -4 15 -23 44 -42 66 -25 28 -32 41 -23 44 8 2
44 11 81 20 96 23 174 54 208 83 26 21 30 32 30 74 0 45 3 50 28 59 15 6 35
15 45 21 24 13 26 11 33 -43 6 -41 4 -47 -21 -64 -68 -47 -66 -41 -63 -197 l3
-143 -28 -37 c-15 -21 -57 -54 -92 -74 -42 -24 -68 -47 -76 -65 -16 -40 -3
-108 31 -160 l29 -44 -34 -70 c-34 -66 -84 -242 -85 -294 -1 -49 -13 -54 -60
-25 -186 118 -521 232 -800 275 -78 12 -307 32 -350 31 -20 -1 -30 9 -54 55
-16 30 -59 90 -95 132 -89 103 -113 136 -155 210 l-35 62 39 0 c52 0 82 13
129 55 52 48 97 119 136 217 l32 81 7 -36 c11 -57 82 -191 131 -245 52 -58 89
-76 145 -70 22 2 40 3 40 2 0 -1 -18 -33 -40 -71 -41 -71 -62 -98 -169 -230
-60 -73 -98 -139 -87 -150 6 -6 100 24 147 48 48 24 96 80 127 149 21 46 27
74 30 167 l4 112 -53 47 c-30 26 -107 101 -171 167 l-118 119 -72 -78 c-40
-42 -95 -98 -123 -123 -27 -25 -71 -67 -97 -92 l-48 -46 0 -91 c0 -134 26
-208 98 -282 50 -51 67 -61 136 -83 86 -27 80 -37 -22 -37 -82 0 -235 -19
-363 -45 -255 -52 -455 -123 -631 -224 -46 -27 -86 -47 -90 -44 -5 2 -8 17 -8
32 0 51 -49 223 -86 301 l-36 77 30 47 c36 57 47 106 32 151 -9 27 -24 41 -71
66 -113 61 -139 116 -121 266 14 123 3 155 -65 183 -18 8 -23 17 -23 49 0 69
5 73 58 52 46 -18 47 -19 50 -67 2 -28 11 -57 20 -68 24 -28 125 -71 212 -90
111 -26 107 -23 77 -54 -31 -32 -57 -91 -57 -127 0 -29 40 -75 66 -75 9 0 51
-16 94 -35 79 -36 128 -43 174 -25 26 10 26 10 9 -16 -9 -14 -39 -39 -67 -55
-85 -49 -156 -37 -240 40 -25 22 -28 23 -22 6 31 -83 13 -147 -60 -220 -45
-46 -52 -56 -37 -61 43 -13 48 -23 65 -109 24 -130 66 -174 154 -160 24 3 46
10 49 15 3 4 -39 45 -93 90 -109 92 -124 110 -92 110 32 0 77 51 90 101 7 24
10 67 7 96 l-5 51 56 -34 c53 -32 138 -64 169 -64 23 0 70 112 101 240 60 248
56 276 -49 377 -127 122 -143 192 -84 374 19 60 35 128 35 152 0 36 -6 49 -35
77 -38 37 -41 48 -23 115 13 48 19 53 38 31 6 -8 28 -20 47 -27 l35 -11 -7
-52 c-4 -28 -7 -59 -7 -69 2 -47 82 -112 239 -191 39 -19 74 -39 77 -44 3 -5
-12 -24 -34 -41 -61 -49 -99 -136 -81 -184 5 -13 24 -33 43 -44 18 -11 63 -47
100 -81 65 -59 132 -91 192 -92 38 -1 -66 -48 -122 -55 -45 -6 -60 -3 -107 20
-31 15 -63 38 -72 51 -23 36 -30 29 -23 -26 8 -64 -17 -134 -96 -265 -33 -55
-68 -119 -77 -143 -26 -65 -22 -138 11 -203 28 -56 83 -103 111 -95 9 3 35 10
58 16 l42 11 -39 52 c-82 107 -88 180 -30 347 22 63 40 123 40 132 0 37 20 25
73 -45 92 -122 105 -164 80 -267 -30 -127 -32 -144 -18 -176 18 -43 31 -49 63
-28 67 44 77 85 38 162 -28 57 -59 152 -81 247 -15 65 -15 71 1 80 124 73 194
148 255 270 73 148 68 186 -43 327 -100 128 -137 203 -145 295 -7 95 17 154
113 273 119 148 153 196 185 263 39 82 38 127 -1 160 -16 14 -38 28 -48 32
-20 6 -42 44 -42 72 0 40 50 65 89 44 16 -9 17 -5 17 39 -1 41 4 54 28 79 37
38 49 39 75 3z m-2607 -2269 c66 -30 132 -94 158 -155 71 -165 -73 -358 -249
-334 -138 19 -226 148 -173 253 26 51 62 74 115 75 64 1 98 -52 60 -94 -21
-24 -42 -23 -69 3 -28 26 -48 20 -62 -18 -16 -47 8 -90 64 -115 113 -50 240
26 252 152 6 67 -2 94 -44 140 -41 46 -82 60 -171 60 -96 0 -161 -29 -241
-108 -104 -103 -157 -217 -188 -403 -20 -119 -15 -287 11 -384 49 -181 156
-305 262 -305 87 1 137 107 78 165 -26 27 -14 33 28 14 90 -41 57 -208 -51
-260 -109 -54 -257 11 -352 153 -200 300 -94 905 196 1111 84 60 144 78 244
74 59 -2 99 -10 132 -24z m5415 -13 c213 -105 363 -409 363 -739 0 -139 -21
-245 -66 -338 -103 -213 -315 -308 -433 -195 -45 43 -67 103 -57 157 8 43 46
85 75 85 20 0 19 -1 -4 -36 -28 -41 -29 -51 -15 -88 36 -97 155 -87 249 20 84
96 129 224 138 395 13 248 -56 463 -196 604 -90 92 -210 132 -326 111 -40 -8
-99 -55 -121 -97 -18 -35 -18 -110 0 -152 25 -61 111 -117 180 -117 11 0 39 9
62 20 70 34 90 108 41 149 -13 10 -18 8 -32 -13 -23 -34 -59 -34 -82 0 -15 24
-15 29 -2 53 23 40 57 47 112 23 38 -17 52 -30 67 -64 25 -56 25 -84 -2 -138
-28 -55 -100 -106 -164 -116 -126 -19 -252 80 -269 211 -30 227 248 380 482
265z m-2432 -214 c224 -37 436 -101 596 -181 115 -58 199 -112 198 -128 0 -7
-6 -48 -12 -93 l-12 -81 -93 52 c-213 121 -480 198 -807 235 -119 13 -470 13
-593 -1 -330 -36 -612 -122 -838 -256 l-50 -30 -3 42 c-1 23 -5 65 -10 93 l-8
52 61 39 c222 145 482 225 886 275 88 10 588 -3 685 -18z m-39 -280 c247 -37
463 -102 624 -188 52 -28 104 -57 115 -65 l20 -15 -20 6 c-220 62 -397 67
-556 15 -203 -66 -357 -236 -403 -446 -17 -76 -22 -198 -8 -207 5 -3 14 25 21
62 28 142 104 292 179 350 91 71 239 142 372 178 71 20 279 26 381 11 l57 -8
-4 -37 c-17 -167 -10 -150 -66 -178 -48 -24 -49 -24 -43 -5 8 26 -2 26 -40 1
-38 -25 -44 -25 -37 2 6 24 0 22 -54 -19 -44 -33 -58 -30 -39 7 9 17 14 30 12
30 -2 0 -38 -18 -81 -40 -88 -45 -111 -50 -101 -20 6 18 1 17 -57 -10 -53 -26
-70 -30 -111 -24 -45 6 -53 3 -102 -31 -59 -40 -90 -76 -124 -144 -21 -40 -21
-43 -4 -36 40 17 107 35 128 35 12 0 44 -12 71 -26 121 -65 147 -76 172 -71
15 3 39 -1 53 -9 28 -14 41 -10 33 10 -4 9 12 11 58 9 53 -3 59 -1 41 8 -26
14 -30 29 -9 29 19 0 166 76 186 96 8 8 15 22 15 30 0 9 15 28 34 43 28 21 33
23 28 8 -4 -11 -12 -125 -17 -255 -15 -347 -41 -488 -128 -688 -104 -241 -262
-447 -566 -741 -189 -183 -234 -210 -364 -220 -90 -7 -185 8 -243 38 -49 24
-363 322 -465 440 -181 210 -292 392 -359 592 -51 153 -73 298 -84 574 -6 132
-13 247 -17 256 -9 25 7 20 45 -14 25 -23 30 -33 21 -39 -9 -6 0 -16 30 -35
54 -34 160 -85 178 -85 20 0 14 -16 -10 -28 -19 -9 -12 -11 42 -12 36 -1 59
-4 52 -7 -6 -2 -10 -9 -6 -14 3 -5 17 -3 33 6 15 7 38 11 50 8 25 -6 67 9 141
53 76 45 113 50 186 25 32 -11 61 -18 63 -15 8 7 -33 75 -72 120 -22 24 -59
56 -83 70 -37 22 -52 25 -89 20 -35 -6 -53 -2 -94 18 -60 31 -91 35 -70 10 12
-15 10 -16 -21 -9 -19 4 -63 22 -97 41 -45 24 -63 30 -63 19 0 -7 5 -17 10
-20 6 -3 10 -10 10 -16 0 -18 -26 -9 -60 21 -42 35 -66 40 -50 10 6 -11 7 -20
2 -20 -5 0 -21 9 -35 20 -14 11 -30 20 -36 20 -9 0 -9 -5 -1 -20 14 -26 10
-25 -49 5 l-48 26 -8 90 c-3 50 -4 93 -2 96 13 13 165 25 267 20 136 -5 242
-37 402 -119 117 -60 188 -125 235 -213 33 -63 83 -220 83 -261 0 -13 5 -24
10 -24 15 0 12 144 -5 223 -43 206 -221 387 -440 448 -137 39 -350 28 -505
-25 l-45 -16 25 20 c46 36 233 128 337 164 113 39 290 78 428 95 50 6 101 13
115 15 59 10 530 -3 626 -18z m-2999 -485 c130 -60 209 -210 183 -349 -22
-121 -96 -206 -267 -308 -189 -113 -292 -217 -365 -370 -41 -84 -74 -230 -66
-286 4 -23 2 -26 -8 -16 -42 44 -57 201 -28 299 49 166 152 284 410 471 105
76 171 142 201 203 22 42 25 58 21 117 -6 79 -35 129 -100 175 -36 24 -51 28
-111 28 -63 0 -71 -2 -89 -26 -17 -22 -18 -30 -8 -49 8 -15 18 -20 31 -17 10
3 19 1 19 -4 0 -13 -44 -11 -58 3 -7 7 -12 28 -12 48 0 39 25 71 70 89 42 16
131 12 177 -8z m5386 10 c36 -14 77 -62 77 -90 0 -43 -56 -82 -75 -51 -3 6 1
7 10 4 17 -7 55 22 55 42 0 27 -51 54 -104 54 -101 -1 -182 -64 -211 -165 -38
-131 18 -215 270 -401 140 -104 216 -178 280 -274 98 -148 119 -299 59 -435
l-18 -40 -7 90 c-18 232 -144 431 -359 564 -288 178 -335 234 -335 401 0 69 5
94 24 133 30 61 94 126 151 155 48 24 138 30 183 13z m-6438 -336 c59 -59 4
-151 -74 -124 -17 6 -31 15 -31 20 0 5 -4 9 -10 9 -15 0 -12 -35 5 -78 66
-156 269 -164 390 -15 53 65 57 62 12 -10 -106 -165 -285 -196 -399 -69 -76
84 -77 212 -3 270 37 29 80 28 110 -3z m7415 10 c38 -20 65 -89 57 -150 -27
-195 -239 -271 -387 -138 -44 39 -107 129 -98 138 2 2 19 -17 38 -43 102 -136
283 -151 370 -30 19 26 30 53 30 74 l0 33 -32 -13 c-39 -16 -69 -8 -92 26 -23
33 -20 56 13 89 33 32 58 36 101 14z m-6152 -1111 c98 -40 168 -143 165 -245
0 -32 -6 -66 -12 -76 -9 -15 -10 -11 -5 18 25 149 -155 292 -313 250 -66 -18
-132 -70 -167 -131 -27 -48 -31 -65 -31 -130 0 -105 39 -184 135 -273 126
-116 281 -174 495 -184 199 -9 349 26 690 159 99 39 232 84 295 100 363 91
686 26 891 -182 188 -191 167 -403 -54 -534 -196 -116 -474 -69 -511 86 -20
84 83 170 199 167 38 -1 39 -1 10 -8 -43 -11 -71 -27 -94 -57 -72 -91 48 -184
218 -171 173 13 310 125 311 256 1 146 -222 340 -455 398 -99 24 -321 24 -435
0 -106 -23 -327 -99 -485 -166 -371 -159 -590 -192 -823 -125 -280 81 -475
313 -460 548 8 125 69 226 168 280 84 46 187 53 268 20z m4998 -10 c134 -64
209 -219 184 -380 -17 -108 -61 -187 -154 -280 -67 -67 -97 -89 -176 -127
-110 -53 -183 -74 -295 -83 -170 -14 -317 23 -645 161 -310 131 -456 172 -650
182 -163 9 -309 -27 -447 -108 -85 -51 -175 -140 -213 -210 -28 -53 -32 -69
-28 -115 6 -67 41 -120 112 -169 95 -65 231 -92 331 -64 50 14 115 77 115 112
0 51 -54 94 -140 111 -14 3 5 3 42 2 80 -4 133 -29 166 -76 73 -108 -36 -227
-217 -238 -184 -11 -372 90 -438 234 -91 199 109 453 437 556 67 20 94 23 250
23 160 0 184 -2 285 -28 61 -16 206 -67 324 -114 338 -133 461 -161 661 -150
134 8 211 28 330 84 227 109 341 326 257 489 -70 138 -237 193 -361 120 -80
-47 -124 -116 -127 -201 l-1 -30 -9 35 c-11 45 -2 93 27 151 66 132 236 182
380 113z m-5042 -235 c30 -35 32 -49 11 -88 -20 -40 -66 -57 -105 -41 -84 35
-57 160 34 160 26 0 40 -7 60 -31z m4952 7 c51 -43 29 -127 -36 -141 -32 -7
-84 15 -94 40 -13 35 -6 76 19 100 31 32 75 32 111 1z m-5395 -448 c112 -172
136 -233 119 -297 -12 -44 -68 -100 -103 -102 -49 -4 -94 4 -129 22 -21 11
-38 18 -38 15 0 -2 9 -23 20 -47 12 -27 20 -66 20 -101 0 -50 -4 -62 -32 -94
-40 -45 -83 -64 -145 -64 -96 1 -184 67 -261 196 -23 38 -71 114 -106 169 -67
104 -72 135 -14 92 24 -18 39 -23 54 -17 27 11 475 279 492 295 11 10 11 17 2
35 -12 23 -7 50 10 50 6 0 56 -69 111 -152z m6149 104 c19 -9 41 -28 48 -42
25 -49 -7 -156 -82 -274 -20 -31 -36 -58 -36 -61 0 -12 67 -37 104 -38 55 -2
116 36 142 90 19 40 24 114 12 171 -10 43 8 39 40 -8 27 -40 30 -123 7 -191
-22 -63 -82 -138 -139 -174 -43 -26 -58 -30 -120 -29 -84 0 -136 23 -200 87
-55 55 -79 108 -84 184 -8 117 52 228 150 277 61 30 109 33 158 8z m-3743
-128 c14 -6 -26 -9 -115 -10 -204 -1 -298 -29 -624 -182 -254 -120 -405 -176
-511 -187 -42 -5 -35 -1 41 19 115 31 235 83 404 177 198 110 333 163 488 193
40 7 293 -1 317 -10z m1388 -18 c87 -26 240 -98 491 -230 126 -66 207 -97 315
-121 35 -7 53 -14 39 -14 -38 -1 -224 46 -299 76 -36 14 -136 61 -221 103
-299 149 -440 193 -630 194 -63 1 -131 -2 -150 -7 -30 -6 -32 -6 -10 4 51 22
109 28 240 25 111 -3 151 -8 225 -30z m1979 -285 c10 -9 24 -29 32 -46 15 -35
4 -55 -32 -55 -66 0 -105 -98 -69 -174 16 -34 113 -128 196 -189 l36 -27 26
20 c21 16 26 17 31 5 5 -14 -130 -176 -166 -199 -26 -16 -33 0 -13 31 l18 27
-79 74 c-43 41 -116 105 -162 144 l-82 70 -26 -18 c-15 -11 -33 -23 -40 -29
-31 -22 -23 10 21 92 51 95 63 113 75 113 4 0 31 -21 59 -46 l51 -46 -8 34
c-4 18 -7 65 -7 105 0 62 3 75 25 98 42 46 73 50 114 16z m-5547 -311 c58 -25
126 -92 149 -145 33 -81 3 -177 -66 -205 -57 -24 -146 18 -256 123 l-52 48
-20 -28 c-11 -15 -25 -46 -31 -68 -9 -34 -8 -46 10 -82 28 -57 70 -85 149 -99
l65 -11 -37 -17 c-75 -33 -148 -14 -225 57 -159 147 -107 364 106 444 49 18
144 11 208 -17z m4980 -2 c31 -34 36 -63 18 -97 -42 -83 -155 -58 -155 34 0
74 90 114 137 63z m226 -251 c162 -188 194 -219 220 -215 15 2 23 12 27 33 l5
30 14 -33 c14 -34 14 -34 -30 -76 -93 -89 -160 -139 -170 -129 -7 7 -5 14 6
23 8 7 15 20 15 30 0 19 -111 152 -218 262 l-66 67 -27 -16 c-33 -20 -48 -12
-28 14 58 75 125 151 131 147 4 -3 58 -64 121 -137z m-4744 -147 c108 -58 166
-150 141 -224 -6 -18 -49 -77 -95 -132 -118 -138 -138 -184 -78 -184 25 0 26
-1 8 -20 -36 -39 -73 -33 -152 27 -40 31 -47 49 -28 76 22 31 19 36 -19 30
-54 -9 -129 14 -175 54 -52 44 -71 80 -71 134 0 35 6 48 39 80 38 39 55 44
125 39 41 -3 123 -40 194 -89 l59 -40 20 22 c37 41 53 71 53 100 0 69 -55 103
-141 87 -101 -19 -118 -10 -93 49 l14 34 68 -5 c52 -4 84 -13 131 -38z m4417
-11 c54 -25 109 -86 140 -153 32 -69 34 -180 3 -244 -40 -81 -111 -135 -200
-150 l-40 -7 51 -75 c77 -111 79 -113 123 -107 68 9 47 -9 -146 -124 -26 -16
-50 -29 -52 -29 -11 0 -4 25 12 43 17 18 17 21 -11 70 -15 29 -96 154 -179
278 l-151 227 -33 -16 c-23 -11 -36 -13 -44 -5 -7 7 15 33 72 86 l82 76 30
-42 31 -42 11 45 c17 63 39 103 77 135 69 59 149 71 224 34z m-4000 -260 c52
-23 97 -45 100 -51 3 -5 -12 -32 -34 -61 -162 -215 -197 -292 -153 -336 23
-23 80 -36 115 -27 50 12 109 71 163 160 67 112 73 134 45 157 -23 18 -30 54
-9 46 142 -56 197 -81 197 -87 0 -5 -35 -66 -78 -137 -100 -163 -152 -256
-152 -273 0 -9 10 -10 38 -5 l37 7 -29 -31 c-17 -17 -35 -31 -40 -31 -6 0 -42
13 -81 28 -38 16 -78 31 -88 35 -16 6 -15 11 12 54 16 26 28 49 27 50 -2 2
-23 -6 -47 -17 -128 -58 -279 17 -279 137 0 50 13 78 81 180 27 40 62 95 79
123 l30 50 -25 22 c-26 23 -33 48 -14 48 7 0 54 -19 105 -41z m3331 -90 c67
-25 89 -61 158 -259 54 -156 67 -171 96 -111 l16 34 6 -33 c13 -65 13 -65 -98
-114 -119 -52 -149 -58 -120 -25 19 20 18 23 -24 152 -68 207 -93 247 -156
247 -62 0 -95 -51 -95 -146 0 -52 65 -259 91 -290 6 -8 24 -14 40 -14 19 0 29
-5 29 -15 0 -8 -1 -15 -3 -15 -2 0 -52 -18 -113 -40 -60 -22 -115 -40 -121
-40 -18 0 -16 27 2 34 23 8 18 45 -20 155 -74 211 -103 253 -167 235 -41 -12
-66 -47 -80 -116 -12 -55 -11 -61 33 -190 44 -132 44 -133 77 -136 17 -2 32
-9 32 -16 0 -14 -247 -93 -258 -82 -4 4 6 18 21 30 l29 23 -22 79 c-12 43 -41
133 -63 199 l-42 120 -35 3 c-19 2 -39 7 -43 11 -8 8 161 111 180 111 6 0 16
-20 23 -45 7 -25 16 -48 21 -50 4 -3 17 16 29 42 37 84 103 133 180 133 49 0
77 -13 107 -49 20 -25 22 -25 28 -6 12 39 57 124 73 138 57 50 131 68 189 46z
m-2529 -65 c22 -4 22 -4 -13 -74 -19 -38 -35 -71 -35 -73 0 -2 28 -12 63 -22
79 -23 86 -30 60 -56 -20 -20 -21 -21 -82 -3 -37 10 -66 13 -71 8 -19 -19
-123 -281 -124 -313 -1 -25 5 -38 27 -54 27 -21 29 -21 75 -5 25 9 48 15 51
12 8 -8 -40 -52 -74 -68 -66 -32 -157 -9 -204 50 -39 49 -29 107 44 276 36 83
63 154 59 159 -3 5 -19 12 -37 17 -22 6 -32 14 -32 28 0 16 6 19 45 16 69 -4
84 3 122 61 38 57 42 58 126 41z m1587 -116 c3 -29 8 -65 11 -80 8 -41 -19
-36 -45 7 -30 52 -82 65 -185 48 l-39 -6 5 -89 c3 -49 8 -91 10 -93 3 -3 53 0
112 6 59 6 109 9 112 6 9 -9 18 -127 9 -127 -4 0 -20 14 -35 30 -26 28 -33 30
-97 30 -37 0 -74 -4 -82 -9 -15 -10 -13 -62 10 -238 14 -108 15 -109 131 -93
83 12 115 31 141 83 9 21 24 37 32 37 12 0 15 -16 15 -80 0 -57 -4 -80 -12
-80 -7 0 -42 -5 -78 -10 -36 -5 -130 -14 -210 -20 -80 -6 -164 -13 -187 -16
-35 -4 -43 -2 -43 11 0 9 13 21 29 26 16 6 31 19 34 29 3 10 -8 146 -24 302
-30 298 -33 308 -81 308 -10 0 -18 6 -18 14 0 11 25 16 103 21 82 6 311 27
364 34 6 0 14 -21 18 -51z m-1296 -111 c122 -22 158 -40 107 -53 -36 -9 -36
-26 -4 -214 12 -69 23 -127 25 -130 7 -8 148 182 178 240 15 29 15 34 0 56 -8
13 -20 24 -25 24 -6 0 -10 8 -10 19 0 18 3 18 92 -1 51 -11 95 -21 97 -24 2
-2 -14 -20 -36 -38 -22 -19 -93 -104 -158 -188 -111 -143 -244 -300 -290 -341
-48 -43 -96 -59 -161 -55 -77 5 -106 26 -94 66 13 44 33 82 43 82 5 0 25 -17
43 -37 46 -50 97 -52 144 -8 65 62 65 56 5 324 -52 236 -64 271 -90 271 -7 0
-15 7 -19 15 -7 19 2 19 153 -8z"/>
<path d="M6322 6455 c-4 -9 -52 -51 -105 -95 -54 -43 -93 -82 -87 -85 6 -4 35
-9 65 -12 52 -5 56 -4 89 29 32 32 45 64 60 146 6 33 -7 43 -22 17z"/>
<path d="M4816 4739 c-60 -47 -11 -139 75 -139 35 0 41 3 50 30 15 41 33 38
68 -14 66 -95 122 -111 175 -50 17 20 44 50 60 67 l28 31 14 -32 c12 -29 17
-32 54 -32 77 0 125 79 84 138 -8 12 -21 22 -29 22 -12 0 -11 -5 2 -28 22 -38
11 -77 -26 -97 -29 -15 -30 -15 -41 20 -22 65 -80 59 -130 -14 -60 -87 -105
-91 -155 -12 -49 78 -108 92 -135 34 -17 -37 -41 -42 -70 -13 -24 24 -25 52
-4 85 20 30 15 31 -20 4z"/>
<path d="M4945 4392 c-44 -21 -100 -73 -157 -144 -21 -26 -58 -56 -88 -71
l-50 -25 33 -19 c38 -23 73 -64 130 -152 46 -71 114 -124 180 -142 24 -6 87
-9 147 -7 155 6 212 40 295 173 46 73 81 112 120 132 l29 16 -46 23 c-27 14
-76 57 -122 107 -92 102 -151 134 -225 122 -55 -8 -78 -8 -151 0 -43 4 -64 1
-95 -13z"/>
<path d="M2085 3334 c-139 -78 -135 -73 -80 -122 25 -22 60 -44 76 -47 74 -16
159 53 159 129 0 40 -28 96 -49 96 -3 0 -51 -25 -106 -56z"/>
<path d="M1849 3192 c-36 -22 -87 -54 -113 -72 -44 -29 -47 -35 -42 -63 14
-68 98 -137 167 -137 42 0 94 26 124 62 40 47 35 109 -15 186 -22 34 -43 62
-47 62 -5 0 -38 -17 -74 -38z"/>
<path d="M8184 3459 c-52 -26 -69 -108 -34 -164 20 -32 80 -85 97 -85 4 0 22
21 40 48 74 112 80 152 24 189 -36 24 -90 29 -127 12z"/>
<path d="M2354 2752 c-17 -9 -46 -30 -65 -46 l-34 -29 60 -54 c32 -29 70 -56
84 -60 36 -9 72 16 99 70 30 57 22 85 -30 117 -40 24 -73 25 -114 2z"/>
<path d="M2606 2179 c-46 -54 -26 -111 49 -139 49 -19 89 -4 134 47 23 25 41
49 41 52 0 14 -132 71 -164 71 -26 0 -41 -8 -60 -31z"/>
<path d="M7140 2311 c-43 -12 -70 -65 -70 -136 0 -58 4 -68 49 -136 68 -103
92 -124 148 -124 38 0 49 5 73 32 16 18 32 48 35 67 10 51 -18 135 -70 204
-56 77 -111 108 -165 93z"/>
</g>
</svg>
